<mxfile host="Electron" modified="2024-12-25T20:20:49.045Z" agent="Mozilla/5.0 (Windows NT 10.0; Win64; x64) AppleWebKit/537.36 (KHTML, like Gecko) draw.io/24.6.1 Chrome/124.0.6367.207 Electron/30.0.6 Safari/537.36" etag="iBaSuS1GXwq-wGiERQ7L" version="24.6.1" type="device">
  <diagram id="bzJVTY_Z4bodXr7Hp66o" name="Страница — 2">
    <mxGraphModel dx="1911" dy="2631" grid="0" gridSize="10" guides="1" tooltips="1" connect="1" arrows="1" fold="1" page="1" pageScale="1" pageWidth="827" pageHeight="1169" math="0" shadow="0">
      <root>
        <mxCell id="0" />
        <mxCell id="1" parent="0" />
        <mxCell id="i3S4_VHXEJDoMG0Mb1Cs-2" value="&lt;p style=&quot;margin: 0px ; margin-top: 4px ; text-align: center ; text-decoration: underline&quot;&gt;&lt;b&gt;Тест&lt;/b&gt;&lt;/p&gt;&lt;hr&gt;&lt;p style=&quot;margin: 0px ; margin-left: 8px&quot;&gt;#id Теста(PK)&lt;/p&gt;&lt;p style=&quot;margin: 0px ; margin-left: 8px&quot;&gt;#id Учащегося(FK)&lt;br&gt;&lt;/p&gt;&lt;p style=&quot;margin: 0px ; margin-left: 8px&quot;&gt;#id Сотрудника(FK)&lt;br&gt;&lt;/p&gt;&lt;p style=&quot;margin: 0px ; margin-left: 8px&quot;&gt;*тесты, анкеты, методики&lt;/p&gt;" style="verticalAlign=top;align=left;overflow=fill;fontSize=12;fontFamily=Helvetica;html=1;rounded=0;shadow=0;comic=0;labelBackgroundColor=none;strokeWidth=1" parent="1" vertex="1">
          <mxGeometry x="234" y="263.75" width="160" height="98.75" as="geometry" />
        </mxCell>
        <mxCell id="i3S4_VHXEJDoMG0Mb1Cs-4" value="&lt;p style=&quot;margin: 0px ; margin-top: 4px ; text-align: center ; text-decoration: underline&quot;&gt;&lt;b&gt;Результат диагностики&lt;/b&gt;&lt;/p&gt;&lt;hr&gt;&lt;p style=&quot;margin: 0px ; margin-left: 8px&quot;&gt;#id Результата(PK)&lt;/p&gt;&lt;p style=&quot;margin: 0px ; margin-left: 8px&quot;&gt;#id Учащегося(FK)&lt;br&gt;&lt;/p&gt;&lt;p style=&quot;margin: 0px ; margin-left: 8px&quot;&gt;#id Сотрудника(FK)&lt;br&gt;&lt;/p&gt;&lt;p style=&quot;margin: 0px ; margin-left: 8px&quot;&gt;&lt;br&gt;&lt;/p&gt;" style="verticalAlign=top;align=left;overflow=fill;fontSize=12;fontFamily=Helvetica;html=1;rounded=0;shadow=0;comic=0;labelBackgroundColor=none;strokeWidth=1" parent="1" vertex="1">
          <mxGeometry x="-26" y="252.5" width="150" height="110" as="geometry" />
        </mxCell>
        <mxCell id="i3S4_VHXEJDoMG0Mb1Cs-5" value="&lt;p style=&quot;margin: 0px ; margin-top: 4px ; text-align: center ; text-decoration: underline&quot;&gt;&lt;b&gt;Отделение&lt;/b&gt;&lt;/p&gt;&lt;hr&gt;&lt;p style=&quot;margin: 0px ; margin-left: 8px&quot;&gt;#id Отделения(PK)&lt;/p&gt;&lt;p style=&quot;margin: 0px ; margin-left: 8px&quot;&gt;*название&lt;/p&gt;" style="verticalAlign=top;align=left;overflow=fill;fontSize=12;fontFamily=Helvetica;html=1;rounded=0;shadow=0;comic=0;labelBackgroundColor=none;strokeWidth=1" parent="1" vertex="1">
          <mxGeometry x="-427" y="12.5" width="140" height="75" as="geometry" />
        </mxCell>
        <mxCell id="i3S4_VHXEJDoMG0Mb1Cs-6" value="&lt;p style=&quot;margin: 0px ; margin-top: 4px ; text-align: center ; text-decoration: underline&quot;&gt;&lt;b&gt;Группа&lt;/b&gt;&lt;/p&gt;&lt;hr&gt;&lt;p style=&quot;margin: 0px ; margin-left: 8px&quot;&gt;#id Группы(PR)&lt;/p&gt;&lt;p style=&quot;margin: 0px ; margin-left: 8px&quot;&gt;*номер&lt;/p&gt;&lt;p style=&quot;margin: 0px ; margin-left: 8px&quot;&gt;#id Отделения(FK&lt;span style=&quot;background-color: initial;&quot;&gt;)&lt;/span&gt;&lt;br&gt;&lt;/p&gt;" style="verticalAlign=top;align=left;overflow=fill;fontSize=12;fontFamily=Helvetica;html=1;rounded=0;shadow=0;comic=0;labelBackgroundColor=none;strokeWidth=1" parent="1" vertex="1">
          <mxGeometry x="-226" y="12.5" width="140" height="85" as="geometry" />
        </mxCell>
        <mxCell id="i3S4_VHXEJDoMG0Mb1Cs-7" style="edgeStyle=orthogonalEdgeStyle;rounded=0;orthogonalLoop=1;jettySize=auto;html=1;entryX=1;entryY=0.75;entryDx=0;entryDy=0;endArrow=ERmany;endFill=0;exitX=0.993;exitY=0.201;exitDx=0;exitDy=0;exitPerimeter=0;" parent="1" source="i3S4_VHXEJDoMG0Mb1Cs-8" target="i3S4_VHXEJDoMG0Mb1Cs-2" edge="1">
          <mxGeometry relative="1" as="geometry">
            <Array as="points">
              <mxPoint x="113" y="441" />
              <mxPoint x="414" y="441" />
              <mxPoint x="414" y="338" />
            </Array>
          </mxGeometry>
        </mxCell>
        <mxCell id="i3S4_VHXEJDoMG0Mb1Cs-8" value="&lt;p style=&quot;margin: 0px ; margin-top: 4px ; text-align: center ; text-decoration: underline&quot;&gt;&lt;b&gt;Сотрудники СППС&lt;/b&gt;&lt;/p&gt;&lt;hr&gt;&lt;p style=&quot;margin: 0px ; margin-left: 8px&quot;&gt;#id Сотрудника(PK)&lt;/p&gt;&lt;p style=&quot;margin: 0px ; margin-left: 8px&quot;&gt;&lt;br&gt;&lt;/p&gt;" style="verticalAlign=top;align=left;overflow=fill;fontSize=12;fontFamily=Helvetica;html=1;rounded=0;shadow=0;comic=0;labelBackgroundColor=none;strokeWidth=1" parent="1" vertex="1">
          <mxGeometry x="-26" y="402.5" width="140" height="77.5" as="geometry" />
        </mxCell>
        <mxCell id="i3S4_VHXEJDoMG0Mb1Cs-10" value="&lt;p style=&quot;margin: 0px ; margin-top: 4px ; text-align: center ; text-decoration: underline&quot;&gt;&lt;b&gt;Учащийся&lt;/b&gt;&lt;/p&gt;&lt;hr&gt;&lt;p style=&quot;margin: 0px ; margin-left: 8px&quot;&gt;#id Учащегося(PK)&lt;/p&gt;&lt;p style=&quot;margin: 0px ; margin-left: 8px&quot;&gt;*ФИО&lt;/p&gt;&lt;p style=&quot;margin: 0px ; margin-left: 8px&quot;&gt;*данные google acc&lt;/p&gt;&lt;p style=&quot;margin: 0px ; margin-left: 8px&quot;&gt;*возраст&lt;/p&gt;&lt;p style=&quot;margin: 0px ; margin-left: 8px&quot;&gt;*живет ли в общежитии&lt;/p&gt;&lt;p style=&quot;margin: 0px ; margin-left: 8px&quot;&gt;*номер телефона&lt;/p&gt;&lt;p style=&quot;margin: 0px 0px 0px 8px;&quot;&gt;#id Группы(FK)&lt;/p&gt;&lt;div&gt;&lt;br&gt;&lt;/div&gt;" style="verticalAlign=top;align=left;overflow=fill;fontSize=12;fontFamily=Helvetica;html=1;rounded=0;shadow=0;comic=0;labelBackgroundColor=none;strokeWidth=1" parent="1" vertex="1">
          <mxGeometry x="-36" y="72.5" width="150" height="137.5" as="geometry" />
        </mxCell>
        <mxCell id="i3S4_VHXEJDoMG0Mb1Cs-11" value="&lt;p style=&quot;margin: 0px ; margin-top: 4px ; text-align: center ; text-decoration: underline&quot;&gt;&lt;b&gt;Разделы&lt;/b&gt;&lt;/p&gt;&lt;hr&gt;&lt;p style=&quot;margin: 0px ; margin-left: 8px&quot;&gt;#id Разделов(PK)&lt;/p&gt;&lt;p style=&quot;margin: 0px ; margin-left: 8px&quot;&gt;#id Подраздела(FK)&lt;br&gt;&lt;/p&gt;&lt;p style=&quot;margin: 0px ; margin-left: 8px&quot;&gt;*название&lt;/p&gt;" style="verticalAlign=top;align=left;overflow=fill;fontSize=12;fontFamily=Helvetica;html=1;rounded=0;shadow=0;comic=0;labelBackgroundColor=none;strokeWidth=1" parent="1" vertex="1">
          <mxGeometry x="-653.5" y="310" width="155" height="98.75" as="geometry" />
        </mxCell>
        <mxCell id="i3S4_VHXEJDoMG0Mb1Cs-14" value="" style="ellipse;whiteSpace=wrap;html=1;align=center;aspect=fixed;fillColor=none;strokeColor=none;resizable=0;perimeter=centerPerimeter;rotatable=0;allowArrows=0;points=[];outlineConnect=1;" parent="1" vertex="1">
          <mxGeometry x="450" y="-20" width="10" height="10" as="geometry" />
        </mxCell>
        <mxCell id="i3S4_VHXEJDoMG0Mb1Cs-17" style="edgeStyle=orthogonalEdgeStyle;rounded=0;orthogonalLoop=1;jettySize=auto;html=1;entryX=-0.006;entryY=0.835;entryDx=0;entryDy=0;entryPerimeter=0;endArrow=ERmany;endFill=0;exitX=0.991;exitY=0.328;exitDx=0;exitDy=0;exitPerimeter=0;" parent="1" target="i3S4_VHXEJDoMG0Mb1Cs-6" edge="1">
          <mxGeometry relative="1" as="geometry">
            <mxPoint x="-287.26" y="44.36000000000013" as="sourcePoint" />
          </mxGeometry>
        </mxCell>
        <mxCell id="i3S4_VHXEJDoMG0Mb1Cs-18" style="edgeStyle=orthogonalEdgeStyle;rounded=0;orthogonalLoop=1;jettySize=auto;html=1;entryX=-0.019;entryY=0.924;entryDx=0;entryDy=0;entryPerimeter=0;endArrow=ERmany;endFill=0;" parent="1" source="i3S4_VHXEJDoMG0Mb1Cs-6" target="i3S4_VHXEJDoMG0Mb1Cs-10" edge="1">
          <mxGeometry relative="1" as="geometry" />
        </mxCell>
        <mxCell id="i3S4_VHXEJDoMG0Mb1Cs-19" style="edgeStyle=orthogonalEdgeStyle;rounded=0;orthogonalLoop=1;jettySize=auto;html=1;entryX=0.009;entryY=0.597;entryDx=0;entryDy=0;entryPerimeter=0;endArrow=ERmany;endFill=0;exitX=1;exitY=0.19;exitDx=0;exitDy=0;exitPerimeter=0;" parent="1" source="i3S4_VHXEJDoMG0Mb1Cs-10" target="i3S4_VHXEJDoMG0Mb1Cs-2" edge="1">
          <mxGeometry relative="1" as="geometry">
            <Array as="points">
              <mxPoint x="114" y="104" />
              <mxPoint x="140" y="104" />
              <mxPoint x="140" y="203" />
              <mxPoint x="214" y="203" />
              <mxPoint x="214" y="323" />
            </Array>
          </mxGeometry>
        </mxCell>
        <mxCell id="i3S4_VHXEJDoMG0Mb1Cs-20" style="edgeStyle=orthogonalEdgeStyle;rounded=0;orthogonalLoop=1;jettySize=auto;html=1;entryX=0.011;entryY=0.342;entryDx=0;entryDy=0;entryPerimeter=0;endArrow=ERmany;endFill=0;" parent="1" target="i3S4_VHXEJDoMG0Mb1Cs-4" edge="1">
          <mxGeometry relative="1" as="geometry">
            <Array as="points">
              <mxPoint x="114" y="110" />
              <mxPoint x="134" y="110" />
              <mxPoint x="134" y="243" />
              <mxPoint x="-46" y="243" />
              <mxPoint x="-46" y="290" />
            </Array>
            <mxPoint x="114" y="110" as="sourcePoint" />
          </mxGeometry>
        </mxCell>
        <mxCell id="i3S4_VHXEJDoMG0Mb1Cs-21" style="edgeStyle=orthogonalEdgeStyle;rounded=0;orthogonalLoop=1;jettySize=auto;html=1;entryX=1.003;entryY=0.624;entryDx=0;entryDy=0;entryPerimeter=0;endArrow=ERmany;endFill=0;exitX=1;exitY=0.5;exitDx=0;exitDy=0;" parent="1" source="i3S4_VHXEJDoMG0Mb1Cs-8" target="i3S4_VHXEJDoMG0Mb1Cs-4" edge="1">
          <mxGeometry relative="1" as="geometry">
            <Array as="points">
              <mxPoint x="114" y="437" />
              <mxPoint x="154" y="437" />
              <mxPoint x="154" y="321" />
            </Array>
            <mxPoint x="120" y="431" as="sourcePoint" />
          </mxGeometry>
        </mxCell>
        <mxCell id="GBPGD3XCV0Q8jNVxBaiz-1" value="&lt;p style=&quot;margin: 0px ; margin-top: 4px ; text-align: center ; text-decoration: underline&quot;&gt;&lt;b&gt;Подразделы&lt;/b&gt;&lt;/p&gt;&lt;hr&gt;&lt;p style=&quot;margin: 0px ; margin-left: 8px&quot;&gt;#id Подразделов(PK)&lt;/p&gt;&lt;p style=&quot;margin: 0px ; margin-left: 8px&quot;&gt;#id Страницы(FK)&lt;br&gt;&lt;/p&gt;&lt;p style=&quot;margin: 0px ; margin-left: 8px&quot;&gt;*название&lt;/p&gt;" style="verticalAlign=top;align=left;overflow=fill;fontSize=12;fontFamily=Helvetica;html=1;rounded=0;shadow=0;comic=0;labelBackgroundColor=none;strokeWidth=1" parent="1" vertex="1">
          <mxGeometry x="-460" y="303.75" width="155" height="98.75" as="geometry" />
        </mxCell>
        <mxCell id="GBPGD3XCV0Q8jNVxBaiz-2" value="&lt;p style=&quot;margin: 0px ; margin-top: 4px ; text-align: center ; text-decoration: underline&quot;&gt;&lt;b&gt;Страницы&lt;/b&gt;&lt;/p&gt;&lt;hr&gt;&lt;p style=&quot;margin: 0px ; margin-left: 8px&quot;&gt;#id Страниц(PK)&lt;/p&gt;&lt;p style=&quot;margin: 0px ; margin-left: 8px&quot;&gt;*информация&lt;/p&gt;" style="verticalAlign=top;align=left;overflow=fill;fontSize=12;fontFamily=Helvetica;html=1;rounded=0;shadow=0;comic=0;labelBackgroundColor=none;strokeWidth=1" parent="1" vertex="1">
          <mxGeometry x="-260" y="310" width="155" height="98.75" as="geometry" />
        </mxCell>
        <mxCell id="GBPGD3XCV0Q8jNVxBaiz-3" style="edgeStyle=orthogonalEdgeStyle;rounded=0;orthogonalLoop=1;jettySize=auto;html=1;entryX=0.994;entryY=0.58;entryDx=0;entryDy=0;endArrow=ERmany;endFill=0;exitX=-0.013;exitY=0.368;exitDx=0;exitDy=0;exitPerimeter=0;entryPerimeter=0;" parent="1" source="GBPGD3XCV0Q8jNVxBaiz-2" target="GBPGD3XCV0Q8jNVxBaiz-1" edge="1">
          <mxGeometry relative="1" as="geometry">
            <mxPoint x="-500" y="263.25" as="sourcePoint" />
            <mxPoint x="-414" y="217.25" as="targetPoint" />
          </mxGeometry>
        </mxCell>
        <mxCell id="GBPGD3XCV0Q8jNVxBaiz-5" style="edgeStyle=orthogonalEdgeStyle;rounded=0;orthogonalLoop=1;jettySize=auto;html=1;entryX=1;entryY=0.5;entryDx=0;entryDy=0;endArrow=ERmany;endFill=0;exitX=0.004;exitY=0.397;exitDx=0;exitDy=0;exitPerimeter=0;" parent="1" source="GBPGD3XCV0Q8jNVxBaiz-1" target="i3S4_VHXEJDoMG0Mb1Cs-11" edge="1">
          <mxGeometry relative="1" as="geometry">
            <mxPoint x="-330" y="276" as="sourcePoint" />
            <mxPoint x="-244" y="230" as="targetPoint" />
          </mxGeometry>
        </mxCell>
      </root>
    </mxGraphModel>
  </diagram>
</mxfile>
